<svg xmlns="http://www.w3.org/2000/svg"><symbol id="placeholder" viewBox="0 0 60 60"><path d="M50.12 48a27 27 0 000-36l7.59-7.59a.5.5 0 000-.71L56.3 2.29a.5.5 0 00-.71 0L48 9.88a27 27 0 00-36 0L4.41 2.29a.5.5 0 00-.71 0L2.29 3.71a.5.5 0 000 .71L9.88 12a27 27 0 000 36l-7.59 7.59a.5.5 0 000 .71 2.5 2.5 0 003.54 0L12 50.12a27 27 0 0036 0l6.17 6.17a2.5 2.5 0 003.54 0 .5.5 0 000-.71zM30 6a24 24 0 0115.87 6L30 27.88 14.13 12A24 24 0 0130 6zM6 30a23.86 23.86 0 016-15.86L27.88 30 12 45.87A24 24 0 016 30zm24 24a23.86 23.86 0 01-15.86-6L30 32.12 45.87 48A24 24 0 0130 54zm18-8.14L32.12 30 48 14.13a23.94 23.94 0 010 31.73z"/></symbol><symbol id="calendar" viewBox="0 0 24 24"><path d="M18 3V1.5h-3V3H9V1.5H6V3H2v15.125L5.875 22H22V3zm-2-.5h1v2h-1zm-9 0h1v2H7zM6 4v1.5h3V4h6v1.5h3V4h3v3.5H3V4zm.29 17l-1.645-1.645L3 17.711V8.5h18V21z"/><path d="M6 12h11l1-1H7l-1 1zm0 3h11l1-1H7l-1 1zm0 3h11l1-1H7l-1 1z"/></symbol><symbol id="check-mark" viewBox="0 0 24 24"><path d="M8.5 18.707l-6.354-6.353.708-.708L8.5 17.293 21.146 4.646l.708.708L8.5 18.707z"/></symbol><symbol id="close" viewBox="0 0 24 24"><path d="M21.854 2.854l-.708-.708L12 11.293 2.854 2.146l-.708.708L11.293 12l-9.147 9.146.708.708L12 12.707l9.146 9.147.708-.708L12.707 12l9.147-9.146z"/></symbol><symbol id="danger" viewBox="0 0 24 24"><style/><g id="Icons"><path d="M12 23C5.9 23 1 18.1 1 12S5.9 1 12 1s11 4.9 11 11-4.9 11-11 11zm0-21C6.5 2 2 6.5 2 12s4.5 10 10 10 10-4.5 10-10S17.5 2 12 2z"/><path d="M12.9 15.3V17H11v-1.8h1.9zm0-8.3v2.9l-.5 4.3h-.8l-.5-4.3V7h1.8z"/></g></symbol><symbol id="down" viewBox="0 0 24 24"><path d="M1.174 7.354l.707-.708 10.147 10.147L22.174 6.646l.707.708-10.853 10.853L1.174 7.354z"/></symbol><symbol id="edit" viewBox="0 0 60 60"><path d="M50.12 48a27 27 0 000-36l7.59-7.59a.5.5 0 000-.71L56.3 2.29a.5.5 0 00-.71 0L48 9.88a27 27 0 00-36 0L4.41 2.29a.5.5 0 00-.71 0L2.29 3.71a.5.5 0 000 .71L9.88 12a27 27 0 000 36l-7.59 7.59a.5.5 0 000 .71 2.5 2.5 0 003.54 0L12 50.12a27 27 0 0036 0l6.17 6.17a2.5 2.5 0 003.54 0 .5.5 0 000-.71zM30 6a24 24 0 0115.87 6L30 27.88 14.13 12A24 24 0 0130 6zM6 30a23.86 23.86 0 016-15.86L27.88 30 12 45.87A24 24 0 016 30zm24 24a23.86 23.86 0 01-15.86-6L30 32.12 45.87 48A24 24 0 0130 54zm18-8.14L32.12 30 48 14.13a23.94 23.94 0 010 31.73z"/></symbol><symbol id="home" viewBox="0 0 24 24"><path d="M21 22h-6.5v-8h-5v8H3V10.293l9-9 9 9zm-5.5-1H20V10.707l-8-8-8 8V21h4.5v-8h7z"/></symbol><symbol id="info" viewBox="0 0 24 24"><path d="M11.212 7.004h1.596v1.512h-1.596z"/><path d="M12 23a11 11 0 1111-11 11.012 11.012 0 01-11 11zm0-21a10 10 0 1010 10A10.011 10.011 0 0012 2z"/><path d="M11.212 9.762h-.798v1h.798V17h1.596V9.762h-1.596z"/></symbol><symbol id="left" viewBox="0 0 24 24"><path d="M16.674 1.146l.707.708L7.235 12l10.146 10.146-.707.708L5.821 12 16.674 1.146z"/></symbol><symbol id="menu" viewBox="0 0 24 24"><path d="M1 7h21l1-1H2L1 7zm0 5.5h21l1-1H2l-1 1zM1 18h21l1-1H2l-1 1z"/></symbol><symbol id="play" viewBox="0 0 24 24"><style/><g id="ICON"><path d="M12 23C5.935 23 1 18.065 1 12S5.935 1 12 1s11 4.935 11 11-4.935 11-11 11zm0-21C6.486 2 2 6.486 2 12s4.486 10 10 10 10-4.486 10-10S17.514 2 12 2z"/><path d="M9.299 17.656l-.799-.461V6.915l.799-.461 8.902 5.14v.922l-8.902 5.14zM9.5 7.725v8.661l7.5-4.33-7.5-4.331z"/></g></symbol><symbol id="right" viewBox="0 0 24 24"><path d="M7.381 22.854l-.707-.708L16.821 12 6.674 1.854l.707-.708L18.235 12 7.381 22.854z"/></symbol><symbol id="success" viewBox="0 0 24 24"><path d="M12 23a11 11 0 1111-11 11.012 11.012 0 01-11 11zm0-21a10 10 0 1010 10A10.011 10.011 0 0012 2z"/><path d="M10 16.707l-4.354-4.353.708-.708L10 15.293l7.65-7.651.707.707L10 16.707z"/></symbol><symbol id="up" viewBox="0 0 24 24"><path d="M22.881 16.646l-.707.708L12.028 7.207 1.881 17.354l-.707-.708L12.028 5.793l10.853 10.853z"/></symbol><symbol id="warning" viewBox="0 0 24 24"><path d="M22.201 22H1.793l-.587-1.01L11.481 2h1.038l10.273 18.986zM2.368 21l19.278-.032L12 3.143l-9.647 17.83z"/><path d="M12.938 17.25V19H11.06v-1.75zm-.056-8.246v2.884l-.462 4.326h-.826l-.462-4.326V9.004z"/></symbol></svg>